<svg id="visual" viewBox="0 0 1920 1080" width="1920" height="1080" xmlns="http://www.w3.org/2000/svg" xmlns:xlink="http://www.w3.org/1999/xlink" version="1.1"><rect x="0" y="0" width="1920" height="1080" fill="#fff"></rect><defs><linearGradient id="grad1_0" x1="43.8%" y1="0%" x2="100%" y2="100%"><stop offset="14.444444444444446%" stop-color="#78bc16" stop-opacity="1"></stop><stop offset="85.55555555555554%" stop-color="#78bc16" stop-opacity="1"></stop></linearGradient></defs><defs><linearGradient id="grad1_1" x1="43.8%" y1="0%" x2="100%" y2="100%"><stop offset="14.444444444444446%" stop-color="#78bc16" stop-opacity="1"></stop><stop offset="85.55555555555554%" stop-color="#ffffff" stop-opacity="1"></stop></linearGradient></defs><defs><linearGradient id="grad2_0" x1="0%" y1="0%" x2="56.3%" y2="100%"><stop offset="14.444444444444446%" stop-color="#78bc16" stop-opacity="1"></stop><stop offset="85.55555555555554%" stop-color="#78bc16" stop-opacity="1"></stop></linearGradient></defs><defs><linearGradient id="grad2_1" x1="0%" y1="0%" x2="56.3%" y2="100%"><stop offset="14.444444444444446%" stop-color="#ffffff" stop-opacity="1"></stop><stop offset="85.55555555555554%" stop-color="#78bc16" stop-opacity="1"></stop></linearGradient></defs><g transform="translate(1920, 0)"><path d="M0 756C-100.4 728.6 -200.8 701.2 -266.3 643C-331.9 584.9 -362.6 496 -439.1 439.1C-515.6 382.2 -638 357.2 -698.5 289.3C-758.9 221.4 -757.5 110.7 -756 0L0 0Z" fill="#c0de93"></path><path d="M0 378C-50.2 364.3 -100.4 350.6 -133.2 321.5C-165.9 292.4 -181.3 248 -219.6 219.6C-257.8 191.1 -319 178.6 -349.2 144.7C-379.5 110.7 -378.7 55.4 -378 0L0 0Z" fill="#78bc16"></path></g><g transform="translate(0, 1080)"><path d="M0 -756C102.8 -749 205.6 -742 289.3 -698.5C373 -654.9 437.7 -574.7 500.6 -500.6C563.6 -426.6 624.8 -358.7 667 -276.3C709.3 -193.9 732.7 -96.9 756 0L0 0Z" fill="#c0de93"></path><path d="M0 -378C51.4 -374.5 102.8 -371 144.7 -349.2C186.5 -327.4 218.8 -287.3 250.3 -250.3C281.8 -213.3 312.4 -179.4 333.5 -138.1C354.7 -96.9 366.3 -48.5 378 0L0 0Z" fill="#78bc16"></path></g></svg>