<svg id="visual" viewBox="0 0 1920 1080" width="1920" height="1080" xmlns="http://www.w3.org/2000/svg" xmlns:xlink="http://www.w3.org/1999/xlink" version="1.1"><rect x="0" y="0" width="1920" height="1080" fill="#fff"></rect><defs><linearGradient id="grad1_0" x1="43.8%" y1="0%" x2="100%" y2="100%"><stop offset="14.444444444444446%" stop-color="#ffffff" stop-opacity="1"></stop><stop offset="85.55555555555554%" stop-color="#ffffff" stop-opacity="1"></stop></linearGradient></defs><defs><linearGradient id="grad2_0" x1="0%" y1="0%" x2="56.3%" y2="100%"><stop offset="14.444444444444446%" stop-color="#ffffff" stop-opacity="1"></stop><stop offset="85.55555555555554%" stop-color="#ffffff" stop-opacity="1"></stop></linearGradient></defs><g transform="translate(1920, 0)"><path d="M0 702C-140.6 693.9 -281.1 685.8 -351 607.9C-420.9 530.1 -420.1 382.5 -466.8 269.5C-513.5 156.5 -607.8 78.3 -702 0L0 0Z" fill="#292"></path></g><g transform="translate(0, 1080)"><path d="M0 -702C64.4 -583.7 128.8 -465.5 243.5 -421.8C358.2 -378 523.2 -408.9 607.9 -351C692.7 -293.1 697.4 -146.6 702 0L0 0Z" fill="#292"></path></g></svg>