<svg id="visual" viewBox="0 0 1920 1080" width="1920" height="1080" xmlns="http://www.w3.org/2000/svg" xmlns:xlink="http://www.w3.org/1999/xlink" version="1.1"><rect x="0" y="0" width="1920" height="1080" fill="#78bc16"></rect><path d="M0 573L64 583.2C128 593.3 256 613.7 384 622C512 630.3 640 626.7 768 616.5C896 606.3 1024 589.7 1152 586.8C1280 584 1408 595 1536 604.3C1664 613.7 1792 621.3 1856 625.2L1920 629L1920 1081L1856 1081C1792 1081 1664 1081 1536 1081C1408 1081 1280 1081 1152 1081C1024 1081 896 1081 768 1081C640 1081 512 1081 384 1081C256 1081 128 1081 64 1081L0 1081Z" fill="#fff" stroke-linecap="round" stroke-linejoin="miter"></path></svg>