<svg id="visual" viewBox="0 0 1920 1080" width="1920" height="1080" xmlns="http://www.w3.org/2000/svg" xmlns:xlink="http://www.w3.org/1999/xlink" version="1.1"><rect x="0" y="0" width="1920" height="1080" fill="#107523"></rect><path d="M0 861L45.7 862.8C91.3 864.7 182.7 868.3 274.2 857.2C365.7 846 457.3 820 548.8 805.2C640.3 790.3 731.7 786.7 823 768.8C914.3 751 1005.7 719 1097 739.8C1188.3 760.7 1279.7 834.3 1371.2 843.3C1462.7 852.3 1554.3 796.7 1645.8 761.3C1737.3 726 1828.7 711 1874.3 703.5L1920 696L1920 1081L1874.3 1081C1828.7 1081 1737.3 1081 1645.8 1081C1554.3 1081 1462.7 1081 1371.2 1081C1279.7 1081 1188.3 1081 1097 1081C1005.7 1081 914.3 1081 823 1081C731.7 1081 640.3 1081 548.8 1081C457.3 1081 365.7 1081 274.2 1081C182.7 1081 91.3 1081 45.7 1081L0 1081Z" fill="#FFFFFF" stroke-linecap="round" stroke-linejoin="miter"></path></svg>