<svg id="visual" viewBox="0 0 1920 1080" width="1920" height="1080" xmlns="http://www.w3.org/2000/svg" xmlns:xlink="http://www.w3.org/1999/xlink" version="1.1"><path d="M0 44L32 42.2C64 40.3 128 36.7 192 36.7C256 36.7 320 40.3 384 42.2C448 44 512 44 576 47.7C640 51.3 704 58.7 768 58.7C832 58.7 896 51.3 960 49.5C1024 47.7 1088 51.3 1152 51.3C1216 51.3 1280 47.7 1344 47.7C1408 47.7 1472 51.3 1536 51.3C1600 51.3 1664 47.7 1728 49.5C1792 51.3 1856 58.7 1888 62.3L1920 66L1920 0L1888 0C1856 0 1792 0 1728 0C1664 0 1600 0 1536 0C1472 0 1408 0 1344 0C1280 0 1216 0 1152 0C1088 0 1024 0 960 0C896 0 832 0 768 0C704 0 640 0 576 0C512 0 448 0 384 0C320 0 256 0 192 0C128 0 64 0 32 0L0 0Z" fill="#ffffff"></path><path d="M0 141L32 135.7C64 130.3 128 119.7 192 114.3C256 109 320 109 384 109C448 109 512 109 576 112.7C640 116.3 704 123.7 768 127.3C832 131 896 131 960 125.5C1024 120 1088 109 1152 101.7C1216 94.3 1280 90.7 1344 92.5C1408 94.3 1472 101.7 1536 109C1600 116.3 1664 123.7 1728 129C1792 134.3 1856 137.7 1888 139.3L1920 141L1920 64L1888 60.3C1856 56.7 1792 49.3 1728 47.5C1664 45.7 1600 49.3 1536 49.3C1472 49.3 1408 45.7 1344 45.7C1280 45.7 1216 49.3 1152 49.3C1088 49.3 1024 45.7 960 47.5C896 49.3 832 56.7 768 56.7C704 56.7 640 49.3 576 45.7C512 42 448 42 384 40.2C320 38.3 256 34.7 192 34.7C128 34.7 64 38.3 32 40.2L0 42Z" fill="#eff9f5"></path><path d="M0 195L32 186C64 177 128 159 192 151.8C256 144.7 320 148.3 384 152C448 155.7 512 159.3 576 163C640 166.7 704 170.3 768 175.7C832 181 896 188 960 184.3C1024 180.7 1088 166.3 1152 159.2C1216 152 1280 152 1344 153.8C1408 155.7 1472 159.3 1536 161.2C1600 163 1664 163 1728 168.3C1792 173.7 1856 184.3 1888 189.7L1920 195L1920 139L1888 137.3C1856 135.7 1792 132.3 1728 127C1664 121.7 1600 114.3 1536 107C1472 99.7 1408 92.3 1344 90.5C1280 88.7 1216 92.3 1152 99.7C1088 107 1024 118 960 123.5C896 129 832 129 768 125.3C704 121.7 640 114.3 576 110.7C512 107 448 107 384 107C320 107 256 107 192 112.3C128 117.7 64 128.3 32 133.7L0 139Z" fill="#def3ec"></path><path d="M0 260L32 258.2C64 256.3 128 252.7 192 249.2C256 245.7 320 242.3 384 238.8C448 235.3 512 231.7 576 235.2C640 238.7 704 249.3 768 252.8C832 256.3 896 252.7 960 247.3C1024 242 1088 235 1152 233.3C1216 231.7 1280 235.3 1344 235.3C1408 235.3 1472 231.7 1536 233.3C1600 235 1664 242 1728 251C1792 260 1856 271 1888 276.5L1920 282L1920 193L1888 187.7C1856 182.3 1792 171.7 1728 166.3C1664 161 1600 161 1536 159.2C1472 157.3 1408 153.7 1344 151.8C1280 150 1216 150 1152 157.2C1088 164.3 1024 178.7 960 182.3C896 186 832 179 768 173.7C704 168.3 640 164.7 576 161C512 157.3 448 153.7 384 150C320 146.3 256 142.7 192 149.8C128 157 64 175 32 184L0 193Z" fill="#ceede3"></path><path d="M0 314L32 315.8C64 317.7 128 321.3 192 321.3C256 321.3 320 317.7 384 310.5C448 303.3 512 292.7 576 298.2C640 303.7 704 325.3 768 330.7C832 336 896 325 960 316C1024 307 1088 300 1152 298.2C1216 296.3 1280 299.7 1344 296C1408 292.3 1472 281.7 1536 283.5C1600 285.3 1664 299.7 1728 306.8C1792 314 1856 314 1888 314L1920 314L1920 280L1888 274.5C1856 269 1792 258 1728 249C1664 240 1600 233 1536 231.3C1472 229.7 1408 233.3 1344 233.3C1280 233.3 1216 229.7 1152 231.3C1088 233 1024 240 960 245.3C896 250.7 832 254.3 768 250.8C704 247.3 640 236.7 576 233.2C512 229.7 448 233.3 384 236.8C320 240.3 256 243.7 192 247.2C128 250.7 64 254.3 32 256.2L0 258Z" fill="#bde7d9"></path><path d="M0 552L32 544.8C64 537.7 128 523.3 192 519.7C256 516 320 523 384 519.3C448 515.7 512 501.3 576 514C640 526.7 704 566.3 768 568.2C832 570 896 534 960 537.5C1024 541 1088 584 1152 602C1216 620 1280 613 1344 605.8C1408 598.7 1472 591.3 1536 569.7C1600 548 1664 512 1728 506.7C1792 501.3 1856 526.7 1888 539.3L1920 552L1920 312L1888 312C1856 312 1792 312 1728 304.8C1664 297.7 1600 283.3 1536 281.5C1472 279.7 1408 290.3 1344 294C1280 297.7 1216 294.3 1152 296.2C1088 298 1024 305 960 314C896 323 832 334 768 328.7C704 323.3 640 301.7 576 296.2C512 290.7 448 301.3 384 308.5C320 315.7 256 319.3 192 319.3C128 319.3 64 315.7 32 313.8L0 312Z" fill="#ace1d0"></path><path d="M0 703L32 695.8C64 688.7 128 674.3 192 669C256 663.7 320 667.3 384 656.5C448 645.7 512 620.3 576 629.3C640 638.3 704 681.7 768 690.7C832 699.7 896 674.3 960 677.8C1024 681.3 1088 713.7 1152 735.3C1216 757 1280 768 1344 759C1408 750 1472 721 1536 686.7C1600 652.3 1664 612.7 1728 612.7C1792 612.7 1856 652.3 1888 672.2L1920 692L1920 550L1888 537.3C1856 524.7 1792 499.3 1728 504.7C1664 510 1600 546 1536 567.7C1472 589.3 1408 596.7 1344 603.8C1280 611 1216 618 1152 600C1088 582 1024 539 960 535.5C896 532 832 568 768 566.2C704 564.3 640 524.7 576 512C512 499.3 448 513.7 384 517.3C320 521 256 514 192 517.7C128 521.3 64 535.7 32 542.8L0 550Z" fill="#9adbc7"></path><path d="M0 746L32 744.2C64 742.3 128 738.7 192 733.3C256 728 320 721 384 706.7C448 692.3 512 670.7 576 679.7C640 688.7 704 728.3 768 737.3C832 746.3 896 724.7 960 728.2C1024 731.7 1088 760.3 1152 778.3C1216 796.3 1280 803.7 1344 794.7C1408 785.7 1472 760.3 1536 731.5C1600 702.7 1664 670.3 1728 670.3C1792 670.3 1856 702.7 1888 718.8L1920 735L1920 690L1888 670.2C1856 650.3 1792 610.7 1728 610.7C1664 610.7 1600 650.3 1536 684.7C1472 719 1408 748 1344 757C1280 766 1216 755 1152 733.3C1088 711.7 1024 679.3 960 675.8C896 672.3 832 697.7 768 688.7C704 679.7 640 636.3 576 627.3C512 618.3 448 643.7 384 654.5C320 665.3 256 661.7 192 667C128 672.3 64 686.7 32 693.8L0 701Z" fill="#88d4bd"></path><path d="M0 822L32 829.2C64 836.3 128 850.7 192 848.8C256 847 320 829 384 814.7C448 800.3 512 789.7 576 800.5C640 811.3 704 843.7 768 852.7C832 861.7 896 847.3 960 845.5C1024 843.7 1088 854.3 1152 866.8C1216 879.3 1280 893.7 1344 884.7C1408 875.7 1472 843.3 1536 818.2C1600 793 1664 775 1728 773.2C1792 771.3 1856 785.7 1888 792.8L1920 800L1920 733L1888 716.8C1856 700.7 1792 668.3 1728 668.3C1664 668.3 1600 700.7 1536 729.5C1472 758.3 1408 783.7 1344 792.7C1280 801.7 1216 794.3 1152 776.3C1088 758.3 1024 729.7 960 726.2C896 722.7 832 744.3 768 735.3C704 726.3 640 686.7 576 677.7C512 668.7 448 690.3 384 704.7C320 719 256 726 192 731.3C128 736.7 64 740.3 32 742.2L0 744Z" fill="#75ceb4"></path><path d="M0 1016L32 1017.8C64 1019.7 128 1023.3 192 1028.8C256 1034.3 320 1041.7 384 1045.3C448 1049 512 1049 576 1043.5C640 1038 704 1027 768 1023.3C832 1019.7 896 1023.3 960 1028.8C1024 1034.3 1088 1041.7 1152 1043.5C1216 1045.3 1280 1041.7 1344 1039.8C1408 1038 1472 1038 1536 1038C1600 1038 1664 1038 1728 1034.3C1792 1030.7 1856 1023.3 1888 1019.7L1920 1016L1920 798L1888 790.8C1856 783.7 1792 769.3 1728 771.2C1664 773 1600 791 1536 816.2C1472 841.3 1408 873.7 1344 882.7C1280 891.7 1216 877.3 1152 864.8C1088 852.3 1024 841.7 960 843.5C896 845.3 832 859.7 768 850.7C704 841.7 640 809.3 576 798.5C512 787.7 448 798.3 384 812.7C320 827 256 845 192 846.8C128 848.7 64 834.3 32 827.2L0 820Z" fill="#61c8ab"></path><path d="M0 1081L32 1081C64 1081 128 1081 192 1081C256 1081 320 1081 384 1081C448 1081 512 1081 576 1081C640 1081 704 1081 768 1081C832 1081 896 1081 960 1081C1024 1081 1088 1081 1152 1081C1216 1081 1280 1081 1344 1081C1408 1081 1472 1081 1536 1081C1600 1081 1664 1081 1728 1081C1792 1081 1856 1081 1888 1081L1920 1081L1920 1014L1888 1017.7C1856 1021.3 1792 1028.7 1728 1032.3C1664 1036 1600 1036 1536 1036C1472 1036 1408 1036 1344 1037.8C1280 1039.7 1216 1043.3 1152 1041.5C1088 1039.7 1024 1032.3 960 1026.8C896 1021.3 832 1017.7 768 1021.3C704 1025 640 1036 576 1041.5C512 1047 448 1047 384 1043.3C320 1039.7 256 1032.3 192 1026.8C128 1021.3 64 1017.7 32 1015.8L0 1014Z" fill="#49c1a2"></path></svg>