<svg id="visual" viewBox="0 0 1920 1080" width="1920" height="1080" xmlns="http://www.w3.org/2000/svg" xmlns:xlink="http://www.w3.org/1999/xlink" version="1.1"><rect x="0" y="0" width="1920" height="1080" fill="#76B947"></rect><path d="M0 437L80 449.2C160 461.3 320 485.7 480 511.5C640 537.3 800 564.7 960 581C1120 597.3 1280 602.7 1440 623.5C1600 644.3 1760 680.7 1840 698.8L1920 717L1920 1081L1840 1081C1760 1081 1600 1081 1440 1081C1280 1081 1120 1081 960 1081C800 1081 640 1081 480 1081C320 1081 160 1081 80 1081L0 1081Z" fill="#B2D2A4" stroke-linecap="round" stroke-linejoin="miter"></path></svg>